<?xml version="1.0" encoding="UTF-8"?><svg id="Knockout" xmlns="http://www.w3.org/2000/svg" viewBox="0 0 284.53 300"><defs><style>.cls-1{fill:#fff;stroke-width:0px;}</style></defs><g id="LogoName_Knockout"><path class="cls-1" d="M86.08,75.49h92.22c10.82,0,20.86.72,30.1,2.18C201.99,23.83,165.61,0,103.21,0H10.98C4.92,0,0,4.92,0,10.98v202.55c0,6.07,4.92,10.98,10.98,10.98h64.11V86.47c0-6.07,4.92-10.98,10.98-10.98ZM208.4,77.67c.68,5.72,1.03,11.77,1.03,18.17v33.51c0,66.35-36.52,95.17-106.22,95.17h-28.11v64.5c0,6.07,4.92,10.98,10.98,10.98h92.22c69.7,0,106.22-28.82,106.22-95.17v-33.51c0-56.23-26.45-85.77-76.13-93.65Z"/></g></svg>
