<?xml version="1.0" encoding="UTF-8"?><svg id="Knockout" xmlns="http://www.w3.org/2000/svg" viewBox="0 0 1557.9 300"><defs><style>.cls-1{fill:#fff;stroke-width:0px;}</style></defs><g id="LogoLockup_Knockout"><path id="LogoName" class="cls-1" d="M440.43,75.44c45.85,0,70.55,19.36,70.55,63.65v22.26c0,44.07-24.26,63.21-70.55,63.21h-68.55V75.44h68.55ZM401.04,200.3h39.39c28.71,0,40.73-12.24,40.73-38.95v-22.26c0-26.71-11.8-39.39-40.73-39.39h-39.39v100.6ZM567.07,64.31c8.46,0,14.91,5.79,14.91,13.13v.89c0,7.79-6.45,13.35-14.91,13.35h-2.23c-8.46,0-14.69-5.57-14.69-13.35v-.89c0-7.34,6.23-13.13,14.69-13.13h2.23ZM580.2,111.72v112.84h-28.27v-112.84h28.27ZM642.51,111.72l33.83,83.02h6.9l33.16-83.02h26.93l-44.96,112.84h-39.84l-45.62-112.84h29.6ZM831.47,109.72c33.83,0,59.65,17.36,59.65,52.75v12.69h-95.7c0,20.7,12.02,30.71,32.27,30.71h3.78c18.25,0,28.71-6.45,32.05-18.25h26.26c-3.34,23.59-22.7,39.17-58.31,39.17h-3.78c-33.83,0-59.43-17.14-59.43-52.53v-11.8c0-35.39,25.37-52.75,59.43-52.75h3.78ZM795.41,156.01h68.55c-1.34-16.47-14.02-25.6-32.49-25.6h-3.78c-19.36,0-30.94,8.9-32.27,25.6ZM1001.28,75.44c45.85,0,70.55,19.36,70.55,63.65v22.26c0,44.07-24.26,63.21-70.55,63.21h-68.55V75.44h68.55ZM961.88,200.3h39.39c28.71,0,40.73-12.24,40.73-38.95v-22.26c0-26.71-11.8-39.39-40.73-39.39h-39.39v100.6ZM1171.98,109.72c33.83,0,59.65,17.36,59.65,52.75v12.69h-95.7c0,20.7,12.02,30.71,32.27,30.71h3.78c18.25,0,28.71-6.45,32.05-18.25h26.26c-3.34,23.59-22.7,39.17-58.31,39.17h-3.78c-33.83,0-59.43-17.14-59.43-52.53v-11.8c0-35.39,25.37-52.75,59.43-52.75h3.78ZM1135.93,156.01h68.55c-1.34-16.47-14.02-25.6-32.49-25.6h-3.78c-19.36,0-30.94,8.9-32.27,25.6ZM1333.11,109.72c33.83,0,59.65,17.36,59.65,52.75v12.69h-95.7c0,20.7,12.02,30.71,32.27,30.71h3.78c18.25,0,28.71-6.45,32.05-18.25h26.26c-3.34,23.59-22.7,39.17-58.31,39.17h-3.78c-33.83,0-59.43-17.14-59.43-52.53v-11.8c0-35.39,25.37-52.75,59.43-52.75h3.78ZM1297.06,156.01h68.55c-1.34-16.47-14.02-25.6-32.49-25.6h-3.78c-19.36,0-30.94,8.9-32.27,25.6ZM1461.53,111.72v14.91h4.68c8.68-11.35,21.81-16.92,38.06-16.92h3.78c28.93,0,49.85,16.92,49.85,52.75v11.57c0,35.83-20.92,52.75-49.85,52.75h-3.78c-16.69,0-29.6-5.79-38.06-17.14h-4.68v68.33h-28.27V111.72h28.27ZM1461.53,162.24v12.02c0,19.81,12.69,29.82,32.27,29.82h3.56c19.81,0,32.27-10.46,32.27-29.82v-12.02c0-19.59-12.47-30.05-32.27-30.05h-3.56c-19.59,0-32.27,10.24-32.27,30.05Z"/><g id="LogoMark"><path class="cls-1" d="M86.08,75.49h92.22c10.82,0,20.86.72,30.1,2.18C201.99,23.83,165.61,0,103.21,0H10.98C4.92,0,0,4.92,0,10.98v202.55C0,219.6,4.92,224.51,10.98,224.51h64.11V86.47c0-6.07,4.92-10.98,10.98-10.98ZM208.4,77.67c.68,5.72,1.03,11.77,1.03,18.17v33.51c0,66.35-36.52,95.17-106.22,95.17h-28.11v64.5c0,6.07,4.92,10.98,10.98,10.98h92.22c69.7,0,106.22-28.82,106.22-95.17v-33.51c0-56.23-26.45-85.77-76.13-93.65Z"/></g></g></svg>
